<?xml version="1.0" encoding="utf-8"?>
<!-- Generator: Adobe Illustrator 21.0.0, SVG Export Plug-In . SVG Version: 6.00 Build 0)  -->
<svg version="1.1" id="Capa_1" xmlns="http://www.w3.org/2000/svg" xmlns:xlink="http://www.w3.org/1999/xlink" x="0px" y="0px"
	 viewBox="0 0 160 160" style="enable-background:new 0 0 160 160;" xml:space="preserve">
<style type="text/css">
	.st0{fill:#005FE8;}
</style>
<g>
	<path class="st0" d="M50.8,81.3l0.4-0.2c0.5,1,1.3,1.6,2.3,1.6c1.3,0,2.3-0.9,2.3-2.8v-6.2h0.4v6.1c0,1.2-0.3,2-0.9,2.5
		c-0.5,0.5-1.1,0.7-1.9,0.7C52.2,83.1,51.3,82.4,50.8,81.3z"/>
	<path class="st0" d="M62,73.7h0.4l4.4,9.3h-0.5l-1.2-2.7h-5.7L58.1,83h-0.5L62,73.7z M64.9,79.9l-2.7-5.7l-2.6,5.7H64.9z"/>
	<path class="st0" d="M68.8,73.8h0.4V83h-0.4V73.8z"/>
	<path class="st0" d="M72.1,73.8h0.4l3.9,5.6l3.9-5.6h0.4V83h-0.4v-8.4l-3.9,5.5h0l-3.9-5.5V83h-0.4V73.8z"/>
	<path class="st0" d="M83.4,73.8h6.5v0.4h-6v4h5.5v0.4h-5.5v4H90V83h-6.5V73.8z"/>
	<path class="st0" d="M99.5,73.7h0.4l4.4,9.3h-0.5l-1.3-2.7h-5.7L95.6,83h-0.5L99.5,73.7z M102.3,79.9l-2.7-5.7L97,79.9H102.3z"/>
	<path class="st0" d="M106.2,73.8h0.4l6.7,8.4v-8.4h0.4V83h-0.4l-6.8-8.5V83h-0.4V73.8z"/>
	<path class="st0" d="M116.5,73.8h3c2.9,0,4.9,2,4.9,4.6v0c0,2.6-2,4.6-4.9,4.6h-3V73.8z M119.5,82.6c2.6,0,4.4-1.8,4.4-4.2v0
		c0-2.3-1.8-4.2-4.4-4.2h-2.6v8.4H119.5z"/>
	<path class="st0" d="M126.7,73.8h3.8c1.2,0,2.1,0.3,2.6,0.9c0.4,0.4,0.7,1,0.7,1.7v0c0,1.6-1.2,2.5-2.9,2.6l3.1,4h-0.6l-3-3.9h0
		h-3.2V83h-0.4V73.8z M130.4,78.7c1.9,0,3-0.9,3-2.2v0c0-1.4-1.1-2.2-2.9-2.2h-3.3v4.5H130.4z"/>
	<path class="st0" d="M136.2,73.8h6.5v0.4h-6v4h5.5v0.4h-5.5v4h6.1V83h-6.5V73.8z"/>
	<path class="st0" d="M144.3,81.7l0.3-0.3c1,0.9,2.1,1.4,3.4,1.4c1.6,0,2.6-0.9,2.6-2v0c0-1.1-0.6-1.7-2.8-2.1
		c-2.2-0.4-3.1-1.2-3.1-2.5v0c0-1.3,1.3-2.4,3-2.4c1.3,0,2.3,0.4,3.1,1.1l-0.3,0.4c-0.8-0.7-1.8-1-2.9-1c-1.5,0-2.5,0.9-2.5,1.9v0
		c0,1.1,0.6,1.7,2.9,2.1c2.3,0.5,3.1,1.2,3.1,2.5v0c0,1.4-1.2,2.5-3.1,2.5C146.6,83.1,145.4,82.6,144.3,81.7z"/>
</g>
<path class="st0" d="M46.1,85c0,0,0-0.1-0.1-0.1l-10-21.8c-0.4-1-1.4-1.6-2.4-1.6h0c-1,0-2,0.6-2.4,1.5L20.4,86.6
	c-0.4,0.9-0.4,2,0.2,2.8c0.6,0.7,1.4,1.1,2.2,1.1c0.6,0,1.1-0.2,1.6-0.5l8.9-6.8c1.4-1.1,3.2-1.7,4.9-1.7h0c2.7,0,5.2,1.6,6.4,4
	l1.9,4.1c0.2,0.4,0.7,0.6,1.1,0.4c0.4-0.2,0.6-0.7,0.4-1.1L46.1,85z M38.2,80c-2.1,0-4.2,0.7-5.9,2l-9.1,6.8c-0.5,0.4-1,0.2-1.3,0
	c-0.3-0.2-0.5-0.7-0.3-1.2l11-23.9c0.2-0.4,0.5-0.6,0.9-0.6h0c0.4,0,0.8,0.2,0.9,0.6l8,17.5C41.3,80.4,39.8,80,38.2,80z"/>
</svg>
