<?xml version="1.0" encoding="utf-8"?>
<!-- Generator: Adobe Illustrator 21.0.0, SVG Export Plug-In . SVG Version: 6.00 Build 0)  -->
<svg version="1.1" id="Capa_1" xmlns="http://www.w3.org/2000/svg" xmlns:xlink="http://www.w3.org/1999/xlink" x="0px" y="0px"
	 viewBox="0 0 1920 1080" style="enable-background:new 0 0 1920 1080;" xml:space="preserve">
<style type="text/css">
	.st0{fill:none;stroke:#000000;stroke-miterlimit:10;}
	.st1{fill:none;stroke:#005FE8;stroke-width:2;stroke-miterlimit:10;}
	.st2{fill:#005FE8;}
</style>
<path class="st0" d="M1391.7,667.2c-0.1-2-0.3-4-0.4-6c-1.2,0.3-2.3,0.6-3.2,0.8C1389.3,663.7,1390.5,665.5,1391.7,667.2z"/>
<path class="st1" d="M1349.5,464.2c-5.9,0.3-13.2,5.4-18.7,5.3c-1.4,0-7.8,2.8-9,2.8c-2.2,0-4.8-8.9-6.9-8.7
	c-11.8,1-30.5,18.4-16.5,31.3c20.1-8.9,101.7-19.3,103.2,16.4C1407,487.3,1368.9,463.1,1349.5,464.2z"/>
<path class="st1" d="M1315.4,506.7c13.7-12.8,34.2-16.3,51.5-10.2C1348.9,488.4,1329.4,487.5,1315.4,506.7z"/>
<path class="st1" d="M1366.9,496.5c4.9,2.2,9.7,4.9,14.2,7.9C1376.8,500.9,1372,498.3,1366.9,496.5z"/>
<path class="st1" d="M1381.1,509.6c-17.9-19.6-55.8-15.6-65.7,10.6c10-0.3,7.9-10.8,15.5-12.3c11.5-2.2,3.3,2.8,10.3,3.5
	c10.6,1.1,25,9.8,23.4-11.7C1368.6,506.8,1374.3,510.8,1381.1,509.6z M1347.1,511.4c1.8-6.2,2.4-3.7,4.7-10.6
	C1358.1,508.1,1353.2,507.9,1347.1,511.4z"/>
<path class="st1" d="M1347.1,511.4c6.1-3.5,11.1-3.3,4.7-10.6C1349.5,507.7,1348.9,505.2,1347.1,511.4z"/>
<path class="st1" d="M1388.1,662c0.9-0.2,2-0.5,3.2-0.8c-0.1-1.7-0.2-3.4-0.3-5.1c-8,0.7-15.6,0.9-22.3,0.1
	c-3.2,3.5-5.9,7.9-8.8,11.7c11.7-10.5,19.1,0.9,31.8,0c0-0.2,0-0.5-0.1-0.7C1390.5,665.5,1389.3,663.7,1388.1,662z"/>
<path class="st1" d="M1565.9,269.8c0.1-20.4-0.8-39.7-7.2-60.9c-10,9.1-4.7,26.5-21.7,22.9c0-3.1,0-6.3,0-9.4
	c-7.1-0.3-13.7,1.3-19.9,4.7c-1.8-7.4-3.5-14.8-5.3-22.3c-2.4,3.7-7.5,5.7-10,9.4c-3.7-5.9-7.4-11.7-11.1-17.6
	c-9.4,16.2-11-0.3-21.3-0.9c-10-0.6-8.5-0.8-20.9,1c-25.7,3.6-26.2,7.5-46.9-10c-5.1,7-10.2,14.1-15.2,21.1
	c-8.5-8.4-26.4-27.6-31.7-4.1c-17.8-21-15.7,21.3-24.2,26c-12,6.7-24.6-13.1-31.8,12.7c-3.7,13.4,0.9,27.8-2.4,43.6
	c-3.9,18.5-9.3,31.9-20.2,47.2c-2.2-3.9-6.8-6.6-8.8-10.6c-6.4,34.9-5.6,64.6-8.1,97.5c-1.9,25.2,13.2,68.2,24.5,92.5
	c0.6-31.8-8.4-65.7-2.5-97.4c3.7-20,30-90.4,57-82.6c-2,6.4-3.9,12.9-5.9,19.3c4.5-4.1,10.8-5.6,15.8-8.8c0.8,2.9,1.6,5.9,2.3,8.8
	c2.5-13.7,19.1-18.3,30.5-23.4c-16.8,27.8-54.9,47.7-77.4,72.1c22.8-20.6,49-35.5,71.3-56.6c14.5-13.7,19.2-17.2,38.3-23.7
	c10.3-3.5,36.9-22.4,38.1-2.9c13-18,24.2,0.3,45.7-4.1c-26.3,20.1-56.4,30.7-86.2,44.5c18.4-5.6,37-10.9,55.2-17.3
	c13.8-4.9,27.9-15,42.4-17.3C1526.2,303.7,1545.4,285.9,1565.9,269.8z M1495.4,241.2c-3.1,14.7-13.7,29.7-27.6,15.2
	c0.5,3.8,0.6,16.6-4.5,18.2c-8.2,2.5-5.5-6.8-15.5-8.3c-21.2-3.1-23,1.9-42.7-12.2c-7,10.6-22.4,9.5-20.5-5.9
	c-13.5,2.4-16.2,13.8-14.1,25.8c-8.3-1-19.3-5.4-27-5.3c-10.6,0.2-7.9,13.7-20.4,7c0,0.4-0.1,0.8-0.1,1.2c-1.2-1.2-2.3-2.3-3.5-3.5
	c1.4,0.9,2.6,1.7,3.7,2.3c0.9-7.8,1.9-15.6,2.8-23.4c4,3.4,10.1,4.2,14.1,7.6c-0.6-6.3,1.2-13.1,0-19.3
	c12.2,20.2,21.1-6.8,35.8-10.8c13.1-3.6,31.1,11.1,36.9,2c9,9.4,12.4,16.8,24.9,15.5c10-1,18-8.6,17.3-18.5
	c14.6,11.8,32.1,7.2,39.9-10.6c13,12.3,29.7,24.5,37.5,41c4.4-4.2,10.8-7,14.7-11.7C1554.4,290.4,1511.6,251.2,1495.4,241.2z"/>
<path class="st1" d="M1361.1,404.7c9.8-9.6,81.7-74,71.5-85C1421.4,349.6,1381.7,380.9,1361.1,404.7z"/>
<path class="st1" d="M1323,276.9c0-0.4,0.1-0.8,0.1-1.2c-1.1-0.6-2.3-1.3-3.7-2.3C1320.7,274.6,1321.9,275.7,1323,276.9z"/>
<path class="st1" d="M1547,247.6c-3.8,4.7-10.3,7.5-14.7,11.7c-7.8-16.6-24.5-28.7-37.5-41c-7.7,17.7-25.2,22.3-39.9,10.6
	c0.7,9.8-7.3,17.4-17.3,18.5c-12.5,1.3-15.9-6.2-24.9-15.5c-5.8,9.1-23.8-5.6-36.9-2c-14.7,4-23.6,31-35.8,10.8
	c1.2,6.2-0.6,13.1,0,19.3c-4-3.4-10.1-4.2-14.1-7.6c-0.9,7.8-1.9,15.6-2.8,23.4c12.4,6.8,9.8-6.7,20.4-7c7.7-0.2,18.7,4.3,27,5.3
	c-2.1-12,0.5-23.4,14.1-25.8c-1.8,15.4,13.6,16.4,20.5,5.9c19.8,14.1,21.6,9.1,42.7,12.2c10,1.5,7.3,10.8,15.5,8.3
	c5.1-1.5,5-14.3,4.5-18.2c13.9,14.4,24.5-0.5,27.6-15.2C1511.6,251.2,1554.4,290.4,1547,247.6z"/>
<path class="st1" d="M1299.6,598.7c-11.8-14.3-7.9-43.8-11.7-62.1c-2,9.6-4.4,19-5.3,28.7c-4.8-15,2.2-19.7,1.3-33.2
	c-0.7-10.8-4.9-20.8-8.4-31.3c0,3.9-0.2,7.8,0,11.7C1275.6,529,1272,602.1,1299.6,598.7z"/>
<path class="st1" d="M1348,524.7c-7.9,0.6-19-1.1-27.8-0.4c1.2,1.8,2.3,3.5,3.5,5.3c21.5,16.1,30.5,6.1,53.9-4.7
	C1369.5,517.8,1354.5,524.2,1348,524.7z"/>
<path class="st1" d="M1371.3,703.5c-3.6-6.7-3.8-23.4-9.5-26.6c-8.4-4.6-14.6,3.3-22.7-2.5c-5.7-4.1-11-11.1-15.9-19.2
	c12.8,23.7,26.8,45.6,47.6,65.8c10.1,9.8,23.1,25.8,35.9,34.5c-2-7.2-3.7-14.5-5.3-21.8C1389.2,727.2,1378.8,717.1,1371.3,703.5z"/>
<path class="st1" d="M1299.6,611c6.9,11.1,14.7,29.5,23.6,44.2c-6.9-12.8-13.5-26.2-20.7-40.1C1301.5,613.8,1300.6,612.4,1299.6,611
	z"/>
<path class="st1" d="M1481.7,907.3c-9.5,9.2-19.4,17.2-29.7,23.2c-47.7,27.8-100.8-28.4-116.6-71.2c-16-43.2-1.5-113.1,12.3-156.2
	c-6.2-10.9-29-67.9-41.8-55.9c-6,5.6-1.9,31.3,0,40c2.5,11.4,12.7,18.5,14.9,28.5c3.6,16-15.9,39.6-16.8,58.6
	c-1.6,33.1,5.2,72.6,10,105.4c2.4,16.3,8.7,53.8,21.9,62.6c15.3,10.2,67.3,1.5,85.1,1.9c24.3,0.5,47.5,0.9,71.7-1.3
	c6.4-0.6,11.7-0.5,16.3-1.3c-3-3.4-5.9-6.8-8.8-10.3C1493.8,923.4,1487.6,915.4,1481.7,907.3z"/>
<path class="st1" d="M1455.5,894.1c-14,14-33.4,27.1-52.2,19.7c-21.6-8.5-22.1-33.5-25.5-54.9c-3.7-23.6-2.2-41.6,0.2-65.3
	c1.6-15.1,9-60.4-8.8-67.6c0,45.2-6.5,96.4,2.8,140.5c4.8,23,9,51.2,35.3,58.8c23.6,6.8,44.3-10.6,58.7-27.5
	c1.6-1.9,3.3-3.8,4.9-5.8c-1.9-2.9-3.8-5.7-5.6-8.6C1462.2,887,1459,890.7,1455.5,894.1z"/>
<path class="st1" d="M1278.2,1039.8c0,0.6,0,1.1,0,1.7c1-0.6,2.1-1.3,3.2-2c0-66.2,3.6-131.5,7.4-197.6c2.5-43,5-86,7.5-129.1
	c0.7-12.2,11-53.2-3.2-60.2c-8.4-4.1-73.3,29.1-82.7,35.8c-23.2,16.7-41.2,46.1-42.4,74.8c-1.4,30.5,21.6,56.5,26.7,85.6
	c5.3,29.8,2.4,62.9,4.4,93.2c1.9,29.1,7.2,59.4,15.5,87.5c3.8,13.1,6.2,19,12.1,21.4C1248.7,1053.3,1256.1,1050.8,1278.2,1039.8z"/>
<path class="st2" d="M1921,175.5c-125.9-17.1-253.1,19.4-351,96.1c0,4-0.1,8-0.1,12c-0.3,24.8,27.4,37.6,15.1,61.9
	c8.7-2,8.8-10.3,7-18.8c12.8,8.3,4.8,31.5,7,43.4c0.4,2.3-4.5,4-3.5,8.2c0.7,2.9,6.9,5.2,7,7.3c0.2,2.4,3.5,7.6,3.9,11
	c0.9,7.6-4.5,2.4-4.9,9.9c-1.7,33.5-6.3,65.1-13.7,99.6c-0.8-2.5-1.7-5-2.5-7.5c-0.1,2.5-0.2,5-0.4,7.5c0-2.9,0-5.9,0-8.8
	c0.1,0.4,0.3,0.9,0.4,1.3c1-35-12.2-63.3-15.1-97.4c-1.4,0.8-2.7,1.6-4.1,2.3c4-6.7,3.7-12.5,0-18.8c-1.7,3.4-5.1,6.4-6.4,10
	c0-3.3,0-6.6,0-10c-2.3,0.8-4.7,1.6-7,2.3c14.5-7.9,11.3-18.5-5.9-13.5c18.6-8,17.3-26.3,0-15.2c2.3-2.8,3.4-6.7,5.9-9.4
	c-5.6-0.1-11,1.4-15.9,4.3c-1.3,1-2.7,1.9-4.1,2.8c1.3-1,2.7-2,4.1-2.8c3.8-2.7,7.4-5.7,11.2-8.4c-13.9-17.1-13.1-12.2-31,4.4
	c-7.8,7.2-28.3,12.6-39.8,20c-5.8,8.2-11.3,16.7-16.6,25.4c-24.3,40-41.8,83-52.6,127.3c0,0,0,0,0.1,0c0,0-0.1,0.1-0.1,0.1
	c-1.7,6.8-3.2,13.6-4.5,20.4c-0.2,1.2-0.4,2.4-0.7,3.5c0,0.1,0,0.1,0,0.2c2.8-6.1,5.1-11.8,6.5-16.6c8.1,23.8-4.3,39.8-9.9,62.4
	c-8.7,35.3,22.4,2,25.7,29c-9.2-4-21.3-4.6-30.1-7.9c-0.6,14.9-0.6,29.8,0.2,44.7c17.9-1.7,37.4-6.1,51-8.1
	c8.4-1.2,59.9-7.3,44.5,9.4c-6.6-11.4-73.9-1.1-95.3,3.9c0.1,2,0.3,4,0.4,6c0.2,0.2,0.3,0.5,0.5,0.7c-0.1,0-0.3,0-0.4,0
	c0.3,4.3,0.7,8.6,1.2,12.9c14.1,8.6,30.5,13.4,47,11.7c21.7-2.2,34.6-16.8,50.7-31.7c-10,20.8-27.8,35.4-50.7,38.1
	c-8.6,1-32.5-5.6-46.4-12.5c1.8,15.8,4.5,31.6,7.9,47.2c9.3,4.8,19.6,7.5,30.5,8c14,0.6,37.5-5.5,48.2,4.3
	c-24,7.4-37.1,25.1-65.3,14c-2.6-1-5.3-2.5-8-4.4c11.9,44.2,30.4,86.8,55.1,126c12.2-14.4,23.1-30.8,36-44.5
	c17.3-18.3,32.6-35.2,46.2-56.5c23.4-36.9,19.5-92.4,23.4-136c24.5,25.8,2.7,110.9-14.3,137.6c-23.4,36.9-56.9,74.5-85.7,108.1
	c3.4,5.2,7,10.3,10.7,15.4c27.1-26.5,50.4-63.1,67.6-92.2c25.9-43.9,49.2-106.8,49.2-157.1c3.7,50.3,11.3,101.6,11.3,152
	c0,38.2-26.5,77.3-41.8,112.4c-10.7-10-21.5-19.9-32.2-29.9c-4.3,11.8-7.5,34-15.8,43.1c-3.3,3.7-6.9,5.2-11,6c3,3.4,6,6.7,9,9.9
	c17.1-3.8,34.3-6.8,50-6.2c27.1,0.9,70.8,13,88.1,32.6c16,18.1,28.2,42.6,41.6,62.8c11.8,17.9,11.7,13.5,3.8,30.2
	c11.7,4.1,23.5,7.8,35.5,11c-3.9-13.7-8.2-27.4-13.1-40.8c-4.4-12-11.7-31.2-21.1-39.8c-9.3-8.5-21.4-8-29.7-18.6
	c-15.3-19.4-17.9-54.4-24.2-77.3c17.8-24.4,28.8-46.4,56.2-58.8c29.2-13.2,60-33.1,91.8-36.2c36.7-3.6,59.9,7,78.6,37.6
	c15.7,25.8,29.9,51.2,42.3,78.7c0.9,2,1.8,4.1,2.6,6.2V175.5z M1507.4,456.9c6.4-0.1,15.5,1.8,20.2,1.8c-0.3,0,5.8,3.3,6.6,3.5
	c1.9,0.5,6.9-6,8.7-5.2c8.9,4,21.7,22.6,19.9,31.7c-30.5-25.8-93-22.9-118.4,12.9C1459.5,472.3,1472.6,457.3,1507.4,456.9z
	 M1516.5,495c1.3,19.5-23.1,19.4-28.1,2.3c-8.4,5.3-16.7,10.7-25.2,15.8c23-19.3,57.5-36.5,78-2.3
	C1530.3,511.7,1522.9,502.9,1516.5,495z M1532.9,515.5c-17.4,8.8-46.1,2.4-63.9-2.3C1481.4,509.2,1520.1,509.8,1532.9,515.5z
	 M1463.1,506.1c4.7-26.3,71.2-31.5,73.3-8.8C1513.6,478.2,1483.5,490.7,1463.1,506.1z M1429.7,621c7.2-10,13.9-12.6,24-17.6
	c8.5-4.1,13.9,4.6,18.5-6.7c4.6-11.5-1-5.1-8.2-13c-18.5-20.4-27.7-40.8-19.6-70.5c9.1,22.6,24.5,47,29,70.3
	C1480.1,618.6,1450.7,603.1,1429.7,621z M1475.4,524.3c-2.1-2-4.3-3.9-6.4-5.9c15.6,6.6,47.8,7.2,63.9,0
	C1529.1,539.5,1489.1,531.7,1475.4,524.3z M1491.3,742.3c-10.1-26.9-0.4-26.3,19.8-40.3c6.8-4.7,15.5-11.4,19.8-18.6
	c5.2-8.7,1.3-17.4,12.5-25.5c-0.5,3.8,0.5,7.9,0,11.7c8.7-11.6,17.1-23.2,25.2-35.2C1574,681.6,1513,709.3,1491.3,742.3z
	 M1595.6,502.6c13.8,18.6,18.4,37.6,0,55.1c-0.1-0.2-5.8-0.9-10.5,1.7c-1.1,1.1-1.9,1.7-1.9,1.3c0.6-0.5,1.2-0.9,1.9-1.3
	c7.7-7.8,35.3-44.5,2.2-37.4C1591.5,516.7,1595.5,510,1595.6,502.6z M1579.2,510.8c2.7,1.2,5.5,2.3,8.2,3.5
	c-8.2,39.9-8,80.1-15.8,120.2C1571.6,594.3,1582.7,550.2,1579.2,510.8z M1610.9,539.1c-0.7,6.4-2.3,12.9-4.8,19.4
	c-3.4,22.5-11.1,40.3-26.6,38.8c11.1-9.4,21-23.8,26.6-38.8c1.8-12.1,2.3-25.5,2.1-38c-4.6-14.8-12.5-29.1-3.9-41.4
	c1.8,7.2,3.6,23.3,3.9,41.4C1610.2,526.6,1611.6,532.9,1610.9,539.1z M1811.9,797.6c-8.2,18.9-80.8,5.6-100.8,15.3
	c-23.8,11.5-45.7,50.6-63.3,71.3c5.8-32.7,18.6-66.6,11.1-99.2c-5.6-24.5-14.2-48.5-19.4-73.1c-4.5-21.4-5.2-18.7,13-33.4
	c35,17,73.1,31.5,106.3,51.6C1774.2,739.3,1820.4,778.1,1811.9,797.6z"/>
<path class="st1" d="M1281.3,1102.9c5.2-16.6,0.3-43.9,0-62.4c-12.2,7.6-16.6,9.2-32.2,10.3c-9.3,0.6-15.2,0.7-19.3-0.9
	c-1.5-0.2-3.1-0.4-4.8-0.6c0,3.5,0,7,0,10.6c2.4,20.3,2.4,42.6,7.3,62.4c1.6,6.4-0.2,14.2,4.2,17.3c1.2,0.8,18.7,1.1,26.9,0.6
	c1.5-0.4,3.1-0.8,4.6-1.2C1270.4,1134.5,1279.6,1108.4,1281.3,1102.9z"/>
</svg>
