<?xml version="1.0" encoding="utf-8"?>
<!-- Generator: Adobe Illustrator 21.0.2, SVG Export Plug-In . SVG Version: 6.00 Build 0)  -->
<svg version="1.1" xmlns="http://www.w3.org/2000/svg" xmlns:xlink="http://www.w3.org/1999/xlink" x="0px" y="0px"
	 viewBox="0 0 1366 768" style="enable-background:new 0 0 1366 768;" xml:space="preserve">
<style type="text/css">
	.st0{display:none;}
	.st1{display:inline;}
	.st2{display:inline;fill:#282828;}
	.st3{fill:#93FBFB;}
	.st4{display:inline;fill:#005FE8;}
	.st5{display:inline;opacity:0.63;fill:#75ABEA;}
	.st6{display:inline;fill:#FFFFFF;}
	.st7{fill:#005FE8;}
</style>
<g id="Capa_3" class="st0">
</g>
<g id="prot1" class="st0">
	<g class="st1">
		<g>
			<path d="M-3448,479.4c-16.5-33.5-33-67-49.6-100.5c-2.3-4.7-4.6-9.4-6.9-14c-0.6-1.3-2.6-0.2-1.9,1.1c16.5,33.5,33,67,49.6,100.5
				c2.3,4.7,4.6,9.4,6.9,14C-3449.3,481.9-3447.4,480.7-3448,479.4L-3448,479.4z"/>
		</g>
	</g>
	<g class="st1">
		<g>
			<path d="M-3506.5,364.9c-16.5,33.5-33,67-49.6,100.5c-2.3,4.7-4.6,9.4-6.9,14c-0.6,1.3,1.3,2.4,1.9,1.1
				c16.5-33.5,33-67,49.6-100.5c2.3-4.7,4.6-9.4,6.9-14C-3503.9,364.8-3505.8,363.6-3506.5,364.9L-3506.5,364.9z"/>
		</g>
	</g>
	
		<text transform="matrix(-0.5745 -0.8185 0.8185 -0.5745 -3463.4644 457.9757)" class="st1" style="font-family:'Gotham-Thin'; font-size:100px;">J</text>
</g>
<g id="BK" class="st0">
	<rect x="-4158" class="st2" width="683" height="768"/>
</g>
<g id="logo" class="st0">
	<g id="Capa_5" class="st1">
		<path class="st3" d="M-878.5,460.1c-0.2-0.4-0.4-0.8-0.6-1.2l-84.8-184.9c-3.7-8.1-11.6-13.2-20.5-13.2h0c-8.9,0-16.7,5-20.5,13.1
			l-92.3,200.2c-3.5,7.7-3.4,17,1.7,23.6c4.8,6.2,11.6,9.4,18.3,9.4c4.7,0,9.5-1.5,13.6-4.6l75.9-57.4c12.1-9.1,26.8-14.1,42-14.1
			l0,0c23,0,44,13.2,54,33.9l16,34.8c1.6,3.5,5.7,5,9.2,3.4c3.5-1.6,5-5.7,3.4-9.2L-878.5,460.1z M-945.6,417.6
			c-18,0-35.9,6-50.3,16.9l-76.9,58.1c-4,3-8.2,1.9-10.7-0.2c-2.6-2.1-4.6-5.9-2.5-10.4l93.6-203.1c1.5-3.2,4.4-5.1,7.9-5.1h0
			c3.5,0,6.5,1.9,7.9,5.1l68.1,148.4C-919.5,421-932.3,417.5-945.6,417.6z"/>
		<text transform="matrix(1 0 0 1 -841.3145 431.3706)" style="font-family:'Gotham-XLight'; font-size:83px;">JAIME ANDRES</text>
	</g>
	<path class="st2" d="M-2948.2,541.4c-0.4-0.8-0.7-1.6-1.1-2.4l-162-353.1c-7.1-15.5-22.1-25.2-39.1-25.2h-0.1c-17,0-32,9.6-39.1,25
		L-3365.8,568c-6.7,14.6-6.5,32.4,3.3,45.1c9.2,11.9,22.1,17.9,35,17.9c9.1,0,18.2-2.9,26-8.9l144.9-109.5
		c23.1-17.4,51.2-26.9,80.1-26.9l0.1,0c43.9,0,84,25.3,103.1,64.7l30.5,66.4c3.1,6.7,10.9,9.6,17.6,6.5c6.7-3.1,9.6-10.9,6.5-17.6
		L-2948.2,541.4z M-3076.3,460.2c-34.5,0-68.6,11.4-96.1,32.2l-146.9,111c-7.6,5.8-15.6,3.6-20.5-0.3c-4.9-3.9-8.7-11.3-4.7-20
		l178.8-387.8c2.8-6.1,8.4-9.7,15.1-9.7h0c6.7,0,12.3,3.7,15.1,9.8l130,283.4C-3026.6,466.8-3051,460.1-3076.3,460.2z"/>
</g>
<g id="Capa_6" class="st0">
	<rect x="-2772" class="st4" width="1366" height="768"/>
	<path class="st5" d="M-1863.8,593.8l-29.5-64.3c-0.4-0.8-0.7-1.6-1.1-2.4l-162-353.1c-7.1-15.5-22.1-25.2-39.1-25.2h-0.1
		c-17,0-32,9.6-39.1,25l-176.2,382.3c-6.7,14.6-6.5,32.4,3.3,45.1c9.2,11.9,22.1,17.9,35,17.9c9.1,0,18.2-2.9,26-8.9l144.9-109.5
		c23.1-17.4,51.2-26.9,80.1-26.9l0.1,0c43.9,0,84,25.3,103.1,64.7l30.5,66.4c3.1,6.7,10.9,9.6,17.6,6.5
		C-1863.6,608.4-1860.7,600.5-1863.8,593.8z"/>
	<path class="st6" d="M-1893.2,529.5c-0.4-0.8-0.7-1.6-1.1-2.4l-162-353.1c-7.1-15.5-22.1-25.2-39.1-25.2h-0.1c-17,0-32,9.6-39.1,25
		l-176.2,382.3c-6.7,14.6-6.5,32.4,3.3,45.1c9.2,11.9,22.1,17.9,35,17.9c9.1,0,18.2-2.9,26-8.9l144.9-109.5
		c23.1-17.4,51.2-26.9,80.1-26.9l0.1,0c43.9,0,84,25.3,103.1,64.7l30.5,66.4c3.1,6.7,10.9,9.6,17.6,6.5c6.7-3.1,9.6-10.9,6.5-17.6
		L-1893.2,529.5z M-2021.3,448.4c-34.5,0-68.6,11.4-96.1,32.2l-146.9,111c-7.6,5.8-15.6,3.6-20.5-0.3c-4.9-3.9-8.7-11.3-4.7-20
		l178.8-387.8c2.8-6.1,8.4-9.7,15.1-9.7h0c6.7,0,12.3,3.7,15.1,9.8l130,283.4C-1971.6,454.9-1996,448.2-2021.3,448.4z"/>
</g>
<g id="Capa_7">
	<path class="st7" d="M965.7,594.1c-0.5-1.1-1.1-2.3-1.6-3.4L730.2,80.8c-10.2-22.4-31.8-36.3-56.5-36.4h-0.1
		c-24.6,0-46.2,13.8-56.5,36.1l-254.4,552c-9.7,21.1-9.4,46.8,4.8,65.2c13.3,17.2,31.9,25.8,50.5,25.8c13.1,0,26.2-4.3,37.5-12.8
		l209.3-158.2c33.3-25.2,74-38.8,115.7-38.9l0.1,0c63.3,0,121.3,36.5,148.8,93.4l44,95.9c4.4,9.6,15.8,13.8,25.4,9.4
		c9.6-4.4,13.9-15.8,9.4-25.4L965.7,594.1z M780.7,476.9c-49.8,0-99,16.5-138.7,46.5L429.9,683.8c-11,8.3-22.5,5.2-29.6-0.5
		c-7.1-5.7-12.6-16.2-6.8-28.8l258.1-560c4-8.8,12.2-14,21.8-14h0.1c9.7,0,17.8,5.3,21.9,14.1l187.7,409.2
		C852.5,486.4,817.3,476.8,780.7,476.9z"/>
</g>
</svg>
