<?xml version="1.0" encoding="utf-8"?>
<!-- Generator: Adobe Illustrator 21.0.0, SVG Export Plug-In . SVG Version: 6.00 Build 0)  -->
<svg version="1.1" id="Capa_1" xmlns="http://www.w3.org/2000/svg" xmlns:xlink="http://www.w3.org/1999/xlink" x="0px" y="0px"
	 viewBox="0 0 160 160" style="enable-background:new 0 0 160 160;" xml:space="preserve">
<style type="text/css">
	.st0{fill:#005FE8;}
</style>
<path class="st0" d="M132.9,119.3c-0.1-0.2-0.2-0.4-0.3-0.6L88.8,23.2c-1.9-4.2-6-6.8-10.6-6.8h0c-4.6,0-8.6,2.6-10.6,6.8L20,126.5
	c-1.8,4-1.8,8.8,0.9,12.2c2.5,3.2,6,4.8,9.5,4.8c2.5,0,4.9-0.8,7-2.4l39.2-29.6c6.2-4.7,13.8-7.3,21.7-7.3l0,0
	c11.9,0,22.7,6.8,27.9,17.5l8.2,18c0.8,1.8,3,2.6,4.8,1.8c1.8-0.8,2.6-3,1.8-4.8L132.9,119.3z M98.3,97.4c-9.3,0-18.5,3.1-26,8.7
	l-39.7,30c-2.1,1.6-4.2,1-5.5-0.1c-1.3-1.1-2.4-3-1.3-5.4L74.1,25.8c0.8-1.6,2.3-2.6,4.1-2.6h0c1.8,0,3.3,1,4.1,2.6l35.2,76.6
	C111.7,99.2,105.2,97.4,98.3,97.4z"/>
</svg>
