<?xml version="1.0" encoding="utf-8"?>
<!-- Generator: Adobe Illustrator 21.0.0, SVG Export Plug-In . SVG Version: 6.00 Build 0)  -->
<svg version="1.1" id="Capa_1" xmlns="http://www.w3.org/2000/svg" xmlns:xlink="http://www.w3.org/1999/xlink" x="0px" y="0px"
	 viewBox="0 0 160 160" style="enable-background:new 0 0 160 160;" xml:space="preserve">
<style type="text/css">
	.st0{fill:#7BBDD9;}
</style>
<g id="XMLID_117_">
	<g id="XMLID_2_">
		<path id="XMLID_9_" class="st0" d="M54.4,77.1h-0.9v-7.2h2c0.3,0,0.6,0,0.8,0.1c0.3,0,0.5,0.1,0.7,0.2c0.4,0.2,0.8,0.4,1,0.7
			c0.2,0.3,0.3,0.7,0.3,1.1c0,0.4-0.1,0.7-0.2,1c-0.1,0.3-0.4,0.5-0.6,0.7c-0.3,0.2-0.6,0.3-1,0.4c-0.4,0.1-0.8,0.1-1.3,0.1
			c-0.2,0-0.5,0-0.7,0V77.1z M54.4,73.3c0.1,0,0.2,0,0.4,0c0.1,0,0.3,0,0.4,0c0.4,0,0.8,0,1.1-0.1c0.3-0.1,0.5-0.2,0.7-0.3
			c0.2-0.1,0.3-0.3,0.4-0.5c0.1-0.2,0.1-0.4,0.1-0.6c0-0.3-0.1-0.5-0.2-0.7c-0.1-0.2-0.3-0.3-0.6-0.4c-0.2-0.1-0.3-0.1-0.5-0.1
			c-0.2,0-0.4,0-0.7,0h-1V73.3z"/>
		<path id="XMLID_12_" class="st0" d="M63.8,74.5c0,0.4-0.1,0.8-0.2,1.1c-0.1,0.3-0.3,0.6-0.5,0.8c-0.2,0.2-0.5,0.4-0.8,0.5
			c-0.3,0.1-0.6,0.2-1,0.2c-0.4,0-0.7-0.1-1-0.2c-0.3-0.1-0.6-0.3-0.8-0.5c-0.2-0.2-0.4-0.5-0.5-0.8c-0.1-0.3-0.2-0.7-0.2-1.1
			c0-0.4,0.1-0.8,0.2-1.1c0.1-0.3,0.3-0.6,0.5-0.9c0.2-0.2,0.5-0.4,0.8-0.6c0.3-0.1,0.6-0.2,1-0.2c0.4,0,0.7,0.1,1,0.2
			c0.3,0.1,0.6,0.3,0.8,0.6c0.2,0.2,0.4,0.5,0.5,0.9C63.7,73.8,63.8,74.1,63.8,74.5z M62.9,74.5c0-0.3,0-0.6-0.1-0.8
			c-0.1-0.2-0.2-0.5-0.3-0.6c-0.1-0.2-0.3-0.3-0.5-0.4c-0.2-0.1-0.4-0.1-0.6-0.1c-0.2,0-0.4,0-0.6,0.1c-0.2,0.1-0.4,0.2-0.5,0.4
			c-0.1,0.2-0.2,0.4-0.3,0.6c-0.1,0.2-0.1,0.5-0.1,0.8c0,0.3,0,0.6,0.1,0.8c0.1,0.2,0.2,0.5,0.3,0.6c0.1,0.2,0.3,0.3,0.5,0.4
			c0.2,0.1,0.4,0.1,0.6,0.1c0.2,0,0.4,0,0.6-0.1c0.2-0.1,0.4-0.2,0.5-0.4c0.1-0.2,0.2-0.4,0.3-0.6C62.8,75.1,62.9,74.8,62.9,74.5z"
			/>
		<path id="XMLID_15_" class="st0" d="M65.9,72.7L65.9,72.7c0.1-0.1,0.2-0.2,0.3-0.3c0.1-0.1,0.2-0.2,0.4-0.3
			c0.1-0.1,0.3-0.1,0.5-0.2c0.2,0,0.3-0.1,0.5-0.1c0.2,0,0.5,0,0.7,0.1c0.2,0.1,0.4,0.2,0.5,0.3c0.2,0.1,0.3,0.3,0.4,0.6
			c0.1,0.2,0.1,0.5,0.1,0.9v3.4h-0.8v-3.3c0-0.4-0.1-0.8-0.3-1c-0.2-0.2-0.4-0.3-0.7-0.3c-0.3,0-0.6,0.1-0.8,0.2
			c-0.3,0.2-0.5,0.4-0.7,0.7v3.6h-0.8V72h0.6L65.9,72.7z"/>
		<path id="XMLID_17_" class="st0" d="M73.6,77.1c-0.1,0-0.2,0.1-0.3,0.1c-0.1,0-0.3,0-0.5,0c-0.3,0-0.5,0-0.7-0.1
			c-0.2-0.1-0.4-0.2-0.5-0.3c-0.1-0.1-0.2-0.3-0.3-0.5c-0.1-0.2-0.1-0.4-0.1-0.6v-3.1h-1V72h1v-1.4H72V72h1.5v0.7H72v3
			c0,0.1,0,0.2,0.1,0.3c0,0.1,0.1,0.2,0.2,0.3c0.1,0.1,0.2,0.1,0.3,0.2c0.1,0,0.3,0.1,0.4,0.1c0.1,0,0.2,0,0.4,0
			c0.1,0,0.2,0,0.3-0.1V77.1z"/>
		<path id="XMLID_19_" class="st0" d="M74.8,70.8v-0.9h0.8v0.9H74.8z M74.8,77.1V72h0.8v5.1H74.8z"/>
		<path id="XMLID_22_" class="st0" d="M78.4,72.7v4.4h-0.8v-4.4h-0.9V72h0.9v-0.6c0-0.4,0.1-0.8,0.2-1c0.1-0.3,0.3-0.5,0.5-0.7
			c0.2-0.2,0.5-0.3,0.8-0.4c0.3-0.1,0.6-0.1,0.9-0.1c0.1,0,0.2,0,0.3,0c0.1,0,0.2,0,0.3,0c0.1,0,0.2,0,0.3,0.1c0.1,0,0.2,0,0.3,0.1
			V70c-0.2-0.1-0.4-0.1-0.6-0.1c-0.2,0-0.4,0-0.6,0c-0.5,0-0.9,0.1-1.2,0.4c-0.3,0.2-0.4,0.6-0.4,1.1V72h3.2v5.1h-0.8v-4.4H78.4z"/>
		<path id="XMLID_24_" class="st0" d="M85.4,71.8c0.2,0,0.5,0,0.7,0.1c0.2,0.1,0.4,0.1,0.6,0.2v0.7c-0.2-0.1-0.4-0.2-0.6-0.2
			c-0.2,0-0.4-0.1-0.6-0.1c-0.2,0-0.4,0-0.6,0.1c-0.2,0.1-0.4,0.2-0.6,0.3c-0.2,0.2-0.3,0.4-0.4,0.6c-0.1,0.3-0.1,0.6-0.1,1
			c0,0.3,0,0.5,0.1,0.8c0.1,0.2,0.2,0.4,0.3,0.6c0.1,0.2,0.3,0.3,0.5,0.4c0.2,0.1,0.5,0.1,0.8,0.1c0.2,0,0.4,0,0.6-0.1
			c0.2,0,0.4-0.1,0.6-0.2v0.7c-0.1,0-0.1,0.1-0.2,0.1c-0.1,0-0.2,0.1-0.3,0.1c-0.1,0-0.2,0-0.4,0.1c-0.1,0-0.3,0-0.4,0
			c-0.3,0-0.7-0.1-1-0.2c-0.3-0.1-0.6-0.3-0.8-0.5c-0.2-0.2-0.4-0.5-0.5-0.8c-0.1-0.3-0.2-0.7-0.2-1.2c0-0.3,0-0.6,0.1-0.9
			c0.1-0.3,0.2-0.5,0.3-0.7c0.1-0.2,0.3-0.4,0.4-0.5c0.2-0.1,0.3-0.3,0.5-0.4c0.2-0.1,0.4-0.2,0.6-0.2C85,71.8,85.2,71.8,85.4,71.8z
			"/>
		<path id="XMLID_26_" class="st0" d="M88.1,70.8v-0.9h0.8v0.9H88.1z M88.1,77.1V72H89v5.1H88.1z"/>
		<path id="XMLID_29_" class="st0" d="M93.6,76.5L93.6,76.5c-0.1,0.1-0.2,0.2-0.3,0.3c-0.1,0.1-0.2,0.2-0.4,0.2
			c-0.1,0.1-0.3,0.1-0.4,0.2c-0.2,0-0.3,0.1-0.5,0.1c-0.2,0-0.5,0-0.7-0.1c-0.2-0.1-0.4-0.2-0.5-0.3c-0.1-0.1-0.3-0.3-0.3-0.5
			c-0.1-0.2-0.1-0.4-0.1-0.7c0-0.3,0-0.5,0.1-0.7c0.1-0.2,0.2-0.4,0.4-0.5c0.2-0.1,0.4-0.2,0.6-0.3c0.2-0.1,0.5-0.1,0.8-0.1
			c0.3,0,0.5,0,0.7,0.1c0.2,0,0.4,0.1,0.6,0.2h0v-0.4c0-0.1,0-0.3,0-0.4c0-0.1,0-0.2-0.1-0.3c-0.1-0.2-0.2-0.3-0.4-0.4
			c-0.2-0.1-0.5-0.2-0.8-0.2c-0.3,0-0.5,0-0.7,0.1c-0.2,0-0.5,0.1-0.7,0.2v-0.7c0.1,0,0.2-0.1,0.3-0.1c0.1,0,0.2-0.1,0.4-0.1
			c0.1,0,0.3,0,0.4-0.1c0.1,0,0.3,0,0.4,0c0.5,0,0.9,0.1,1.3,0.3c0.3,0.2,0.6,0.4,0.7,0.7c0.1,0.1,0.1,0.2,0.1,0.4
			c0,0.1,0,0.3,0,0.5v3.4h-0.7L93.6,76.5z M93.6,74.8c-0.2,0-0.3-0.1-0.5-0.1c-0.2,0-0.4-0.1-0.7-0.1c-0.4,0-0.6,0.1-0.8,0.2
			c-0.2,0.2-0.3,0.4-0.3,0.7c0,0.2,0,0.3,0.1,0.4c0.1,0.1,0.1,0.2,0.2,0.3c0.1,0.1,0.2,0.1,0.3,0.2c0.1,0,0.2,0.1,0.4,0.1
			c0.2,0,0.3,0,0.5-0.1c0.2-0.1,0.3-0.1,0.4-0.2c0.1-0.1,0.2-0.1,0.3-0.2c0.1-0.1,0.1-0.1,0.2-0.2V74.8z"/>
		<path id="XMLID_32_" class="st0" d="M100.8,76.4c0.3,0,0.5,0,0.7-0.1c0.2-0.1,0.4-0.1,0.5-0.3c0.2-0.1,0.3-0.2,0.4-0.4
			c0.1-0.2,0.2-0.3,0.2-0.5c0-0.1,0.1-0.3,0.1-0.4c0-0.1,0-0.3,0-0.4v-4.5h0.9v4.5c0,0.2,0,0.3,0,0.5c0,0.2,0,0.4-0.1,0.5
			c-0.1,0.3-0.2,0.5-0.3,0.7c-0.1,0.2-0.3,0.4-0.5,0.6c-0.2,0.2-0.5,0.3-0.8,0.4c-0.3,0.1-0.7,0.1-1.1,0.1c-0.4,0-0.7,0-1-0.1
			c-0.3-0.1-0.6-0.2-0.8-0.4c-0.2-0.2-0.4-0.3-0.5-0.5c-0.1-0.2-0.2-0.4-0.3-0.7c-0.1-0.2-0.1-0.4-0.1-0.6c0-0.2,0-0.4,0-0.6v-4.5
			h0.9v4.5c0,0.2,0,0.3,0,0.5c0,0.2,0.1,0.3,0.1,0.5c0.1,0.3,0.3,0.6,0.6,0.8C100,76.3,100.3,76.4,100.8,76.4z"/>
		<path id="XMLID_34_" class="st0" d="M106.1,72.7L106.1,72.7c0.1-0.1,0.2-0.2,0.3-0.3c0.1-0.1,0.2-0.2,0.4-0.3
			c0.1-0.1,0.3-0.1,0.5-0.2c0.2,0,0.3-0.1,0.5-0.1c0.2,0,0.5,0,0.7,0.1c0.2,0.1,0.4,0.2,0.5,0.3c0.2,0.1,0.3,0.3,0.4,0.6
			c0.1,0.2,0.1,0.5,0.1,0.9v3.4h-0.8v-3.3c0-0.4-0.1-0.8-0.3-1c-0.2-0.2-0.4-0.3-0.7-0.3c-0.3,0-0.6,0.1-0.8,0.2
			c-0.3,0.2-0.5,0.4-0.7,0.7v3.6h-0.8V72h0.6L106.1,72.7z"/>
		<path id="XMLID_36_" class="st0" d="M111.2,70.8v-0.9h0.8v0.9H111.2z M111.2,77.1V72h0.8v5.1H111.2z"/>
		<path id="XMLID_39_" class="st0" d="M115.5,76.2c0.1-0.4,0.3-0.9,0.5-1.4l1-2.8h0.8l-1.9,5.1H115l-1.9-5.1h0.8l1,2.8
			C115.1,75.4,115.3,75.8,115.5,76.2L115.5,76.2z"/>
		<path id="XMLID_41_" class="st0" d="M121.3,76.5c0.3,0,0.5,0,0.8-0.1c0.2,0,0.5-0.1,0.7-0.2v0.7c-0.2,0.1-0.4,0.2-0.7,0.2
			c-0.3,0.1-0.6,0.1-0.9,0.1c-0.4,0-0.7,0-1-0.1c-0.3-0.1-0.6-0.2-0.8-0.5c-0.2-0.2-0.4-0.5-0.6-0.8c-0.1-0.3-0.2-0.7-0.2-1.2
			c0-0.5,0.1-0.9,0.2-1.2c0.1-0.3,0.3-0.6,0.5-0.9c0.2-0.2,0.5-0.4,0.7-0.5c0.3-0.1,0.6-0.2,0.9-0.2c0.3,0,0.6,0,0.8,0.1
			c0.2,0.1,0.5,0.2,0.6,0.5c0.2,0.2,0.3,0.5,0.4,0.8c0.1,0.3,0.2,0.7,0.2,1.2c0,0,0,0.1,0,0.1c0,0,0,0.1,0,0.2h-3.5
			c0,0.3,0,0.6,0.1,0.8c0.1,0.2,0.2,0.4,0.4,0.6c0.2,0.1,0.4,0.2,0.6,0.3C120.7,76.5,121,76.5,121.3,76.5z M120.8,72.5
			c-0.2,0-0.4,0-0.5,0.1c-0.2,0.1-0.3,0.2-0.4,0.3c-0.1,0.1-0.2,0.3-0.3,0.5c-0.1,0.2-0.1,0.4-0.1,0.6h2.6c0-0.2,0-0.4-0.1-0.6
			c-0.1-0.2-0.1-0.3-0.2-0.5c-0.1-0.1-0.2-0.2-0.4-0.3C121.2,72.6,121,72.5,120.8,72.5z"/>
		<path id="XMLID_44_" class="st0" d="M127.1,72.6L127.1,72.6c-0.3,0-0.5,0-0.6,0.1c-0.2,0-0.4,0.1-0.5,0.2
			c-0.2,0.1-0.3,0.2-0.5,0.3c-0.1,0.1-0.2,0.2-0.3,0.4v3.6h-0.8V72h0.6l0.2,0.8h0c0.1-0.1,0.2-0.3,0.3-0.4c0.1-0.1,0.3-0.2,0.4-0.3
			c0.2-0.1,0.3-0.2,0.5-0.2c0.2,0,0.4-0.1,0.6-0.1c0,0,0.1,0,0.1,0c0,0,0.1,0,0.1,0V72.6z"/>
		<path id="XMLID_46_" class="st0" d="M128.6,73.3c0,0.1,0,0.3,0.1,0.3c0.1,0.1,0.1,0.2,0.2,0.2c0.1,0.1,0.2,0.1,0.3,0.1
			c0.1,0,0.3,0.1,0.4,0.1c0.2,0,0.4,0.1,0.5,0.1c0.2,0.1,0.3,0.1,0.5,0.2c0.1,0.1,0.3,0.2,0.4,0.4c0.1,0.2,0.1,0.4,0.1,0.7
			c0,0.3-0.1,0.5-0.2,0.7c-0.1,0.2-0.2,0.4-0.4,0.5c-0.2,0.1-0.4,0.2-0.7,0.3c-0.3,0.1-0.5,0.1-0.8,0.1c-0.2,0-0.4,0-0.5,0
			c-0.2,0-0.3,0-0.4-0.1c-0.1,0-0.2-0.1-0.3-0.1c-0.1,0-0.2-0.1-0.2-0.1v-0.7c0.2,0.1,0.4,0.2,0.6,0.2c0.2,0.1,0.4,0.1,0.7,0.1
			c0.2,0,0.4,0,0.5-0.1c0.2,0,0.3-0.1,0.4-0.2c0.1-0.1,0.2-0.2,0.3-0.3c0.1-0.1,0.1-0.2,0.1-0.4c0-0.1,0-0.3-0.1-0.4
			c-0.1-0.1-0.1-0.2-0.2-0.2c-0.1-0.1-0.2-0.1-0.3-0.2c-0.1,0-0.3-0.1-0.4-0.1c-0.2,0-0.4-0.1-0.5-0.1c-0.2-0.1-0.4-0.1-0.5-0.2
			c-0.2-0.1-0.3-0.2-0.4-0.4c-0.1-0.2-0.1-0.4-0.1-0.6c0-0.3,0-0.5,0.1-0.7c0.1-0.2,0.2-0.4,0.4-0.5c0.2-0.1,0.4-0.2,0.6-0.3
			c0.2-0.1,0.5-0.1,0.7-0.1c0.3,0,0.5,0,0.8,0.1c0.2,0.1,0.5,0.1,0.7,0.2v0.7c-0.2-0.1-0.4-0.2-0.6-0.2c-0.2-0.1-0.4-0.1-0.7-0.1
			c-0.2,0-0.4,0-0.5,0.1c-0.1,0-0.2,0.1-0.3,0.2c-0.1,0.1-0.2,0.2-0.2,0.2C128.6,73.1,128.6,73.2,128.6,73.3z"/>
		<path id="XMLID_48_" class="st0" d="M132.5,70.8v-0.9h0.8v0.9H132.5z M132.5,77.1V72h0.8v5.1H132.5z"/>
		<path id="XMLID_51_" class="st0" d="M134.8,74.6c0-0.4,0-0.7,0.1-0.9c0.1-0.3,0.2-0.5,0.3-0.7c0.1-0.2,0.2-0.4,0.4-0.5
			c0.2-0.1,0.3-0.3,0.5-0.3c0.2-0.1,0.3-0.1,0.5-0.2c0.2,0,0.3-0.1,0.5-0.1c0.3,0,0.6,0.1,0.8,0.2c0.2,0.1,0.4,0.3,0.6,0.5h0v-3.2
			h0.8v7.8h-0.6l-0.2-0.6h0c-0.1,0.1-0.1,0.2-0.2,0.3c-0.1,0.1-0.2,0.2-0.3,0.2c-0.1,0.1-0.3,0.1-0.4,0.2c-0.2,0-0.3,0.1-0.5,0.1
			c-0.3,0-0.6,0-0.8-0.1c-0.3-0.1-0.5-0.2-0.7-0.5c-0.2-0.2-0.4-0.5-0.5-0.8C134.8,75.5,134.8,75.1,134.8,74.6z M135.6,74.6
			c0,0.3,0,0.6,0.1,0.8c0.1,0.2,0.2,0.4,0.3,0.6c0.1,0.2,0.3,0.3,0.5,0.4c0.2,0.1,0.4,0.1,0.6,0.1c0.2,0,0.3,0,0.5-0.1
			c0.1,0,0.3-0.1,0.4-0.2c0.1-0.1,0.2-0.1,0.3-0.2c0.1-0.1,0.1-0.2,0.2-0.2v-2.7c-0.2-0.2-0.4-0.3-0.6-0.4c-0.2-0.1-0.5-0.2-0.7-0.2
			c-0.2,0-0.3,0-0.5,0.1c-0.2,0.1-0.3,0.2-0.5,0.3c-0.1,0.2-0.3,0.4-0.4,0.6C135.7,73.8,135.6,74.2,135.6,74.6z"/>
		<path id="XMLID_54_" class="st0" d="M144,76.5L144,76.5c-0.1,0.1-0.2,0.2-0.3,0.3c-0.1,0.1-0.2,0.2-0.4,0.2
			c-0.1,0.1-0.3,0.1-0.4,0.2s-0.3,0.1-0.5,0.1c-0.2,0-0.5,0-0.7-0.1c-0.2-0.1-0.4-0.2-0.5-0.3c-0.1-0.1-0.3-0.3-0.3-0.5
			c-0.1-0.2-0.1-0.4-0.1-0.7c0-0.3,0-0.5,0.1-0.7c0.1-0.2,0.2-0.4,0.4-0.5c0.2-0.1,0.4-0.2,0.6-0.3c0.2-0.1,0.5-0.1,0.8-0.1
			c0.3,0,0.5,0,0.7,0.1c0.2,0,0.4,0.1,0.6,0.2h0v-0.4c0-0.1,0-0.3,0-0.4c0-0.1,0-0.2-0.1-0.3c-0.1-0.2-0.2-0.3-0.4-0.4
			c-0.2-0.1-0.5-0.2-0.8-0.2c-0.3,0-0.5,0-0.7,0.1c-0.2,0-0.5,0.1-0.7,0.2v-0.7c0.1,0,0.2-0.1,0.3-0.1c0.1,0,0.2-0.1,0.4-0.1
			c0.1,0,0.3,0,0.4-0.1c0.1,0,0.3,0,0.4,0c0.5,0,0.9,0.1,1.3,0.3c0.3,0.2,0.6,0.4,0.7,0.7c0.1,0.1,0.1,0.2,0.1,0.4
			c0,0.1,0,0.3,0,0.5v3.4h-0.7L144,76.5z M143.9,74.8c-0.2,0-0.3-0.1-0.5-0.1c-0.2,0-0.4-0.1-0.7-0.1c-0.4,0-0.6,0.1-0.8,0.2
			c-0.2,0.2-0.3,0.4-0.3,0.7c0,0.2,0,0.3,0.1,0.4c0.1,0.1,0.1,0.2,0.2,0.3c0.1,0.1,0.2,0.1,0.3,0.2c0.1,0,0.2,0.1,0.4,0.1
			c0.2,0,0.3,0,0.5-0.1c0.2-0.1,0.3-0.1,0.4-0.2c0.1-0.1,0.2-0.1,0.3-0.2c0.1-0.1,0.1-0.1,0.2-0.2V74.8z"/>
		<path id="XMLID_57_" class="st0" d="M146.1,74.6c0-0.4,0-0.7,0.1-0.9c0.1-0.3,0.2-0.5,0.3-0.7c0.1-0.2,0.2-0.4,0.4-0.5
			c0.2-0.1,0.3-0.3,0.5-0.3c0.2-0.1,0.3-0.1,0.5-0.2c0.2,0,0.3-0.1,0.5-0.1c0.3,0,0.6,0.1,0.8,0.2c0.2,0.1,0.4,0.3,0.6,0.5h0v-3.2
			h0.8v7.8H150l-0.2-0.6h0c-0.1,0.1-0.1,0.2-0.2,0.3c-0.1,0.1-0.2,0.2-0.3,0.2c-0.1,0.1-0.3,0.1-0.4,0.2c-0.2,0-0.3,0.1-0.5,0.1
			c-0.3,0-0.6,0-0.8-0.1c-0.3-0.1-0.5-0.2-0.7-0.5c-0.2-0.2-0.4-0.5-0.5-0.8C146.2,75.5,146.1,75.1,146.1,74.6z M147,74.6
			c0,0.3,0,0.6,0.1,0.8c0.1,0.2,0.2,0.4,0.3,0.6c0.1,0.2,0.3,0.3,0.5,0.4c0.2,0.1,0.4,0.1,0.6,0.1c0.2,0,0.3,0,0.5-0.1
			c0.1,0,0.3-0.1,0.4-0.2c0.1-0.1,0.2-0.1,0.3-0.2c0.1-0.1,0.1-0.2,0.2-0.2v-2.7c-0.2-0.2-0.4-0.3-0.6-0.4c-0.2-0.1-0.5-0.2-0.7-0.2
			c-0.2,0-0.3,0-0.5,0.1c-0.2,0.1-0.3,0.2-0.5,0.3c-0.1,0.2-0.3,0.4-0.4,0.6C147,73.8,147,74.2,147,74.6z"/>
		<path id="XMLID_60_" class="st0" d="M57,80.3c-0.4,0-0.8,0.1-1.1,0.2c-0.4,0.1-0.7,0.3-0.9,0.6c-0.3,0.3-0.5,0.6-0.6,0.9
			c-0.1,0.4-0.2,0.8-0.2,1.3c0,0.5,0.1,0.9,0.2,1.3c0.1,0.4,0.3,0.7,0.6,0.9c0.3,0.2,0.6,0.4,0.9,0.5c0.4,0.1,0.8,0.2,1.2,0.2
			c0.1,0,0.2,0,0.4,0c0.1,0,0.3,0,0.4-0.1c0.1,0,0.3-0.1,0.4-0.1c0.1,0,0.2-0.1,0.3-0.1v0.8c-0.2,0.1-0.5,0.1-0.7,0.2
			c-0.3,0-0.6,0.1-0.9,0.1c-0.6,0-1.1-0.1-1.6-0.3c-0.5-0.2-0.9-0.4-1.2-0.7c-0.3-0.3-0.6-0.7-0.7-1.1c-0.2-0.5-0.2-1-0.2-1.5
			c0-0.6,0.1-1.1,0.3-1.5c0.2-0.5,0.4-0.9,0.7-1.2c0.3-0.3,0.7-0.6,1.2-0.8c0.5-0.2,1-0.3,1.5-0.3c0.2,0,0.3,0,0.4,0
			c0.1,0,0.3,0,0.4,0.1c0.1,0,0.3,0.1,0.4,0.1c0.1,0,0.2,0.1,0.3,0.1v0.8c-0.2-0.1-0.5-0.1-0.7-0.2C57.5,80.4,57.2,80.3,57,80.3z"/>
		<path id="XMLID_62_" class="st0" d="M62.9,86.3L62.9,86.3c-0.1,0.1-0.2,0.2-0.3,0.3c-0.1,0.1-0.2,0.2-0.4,0.2
			c-0.1,0.1-0.3,0.1-0.4,0.2c-0.2,0-0.3,0.1-0.5,0.1c-0.2,0-0.5,0-0.7-0.1c-0.2-0.1-0.4-0.2-0.5-0.3c-0.1-0.1-0.3-0.3-0.3-0.5
			c-0.1-0.2-0.1-0.4-0.1-0.7c0-0.3,0-0.5,0.1-0.7c0.1-0.2,0.2-0.4,0.4-0.5c0.2-0.1,0.4-0.2,0.6-0.3c0.2-0.1,0.5-0.1,0.8-0.1
			c0.3,0,0.5,0,0.7,0.1c0.2,0,0.4,0.1,0.6,0.2h0v-0.4c0-0.1,0-0.3,0-0.4c0-0.1,0-0.2-0.1-0.3c-0.1-0.2-0.2-0.3-0.4-0.4
			c-0.2-0.1-0.5-0.2-0.8-0.2c-0.3,0-0.5,0-0.7,0.1c-0.2,0-0.5,0.1-0.7,0.2v-0.7c0.1,0,0.2-0.1,0.3-0.1c0.1,0,0.2-0.1,0.4-0.1
			c0.1,0,0.3,0,0.4-0.1c0.1,0,0.3,0,0.4,0c0.5,0,0.9,0.1,1.3,0.3c0.3,0.2,0.6,0.4,0.7,0.7c0.1,0.1,0.1,0.2,0.1,0.4
			c0,0.1,0,0.3,0,0.5v3.4H63L62.9,86.3z M62.8,84.7c-0.2,0-0.3-0.1-0.5-0.1s-0.4-0.1-0.7-0.1c-0.4,0-0.6,0.1-0.8,0.2
			c-0.2,0.2-0.3,0.4-0.3,0.7c0,0.2,0,0.3,0.1,0.4c0.1,0.1,0.1,0.2,0.2,0.3c0.1,0.1,0.2,0.1,0.3,0.2c0.1,0,0.2,0.1,0.4,0.1
			c0.2,0,0.3,0,0.5-0.1c0.2-0.1,0.3-0.1,0.4-0.2c0.1-0.1,0.2-0.1,0.3-0.2s0.1-0.1,0.2-0.2V84.7z"/>
		<path id="XMLID_65_" class="st0" d="M68,86.9c-0.1,0-0.2,0.1-0.3,0.1c-0.1,0-0.3,0-0.5,0c-0.3,0-0.5,0-0.7-0.1
			c-0.2-0.1-0.4-0.2-0.5-0.3c-0.1-0.1-0.2-0.3-0.3-0.5c-0.1-0.2-0.1-0.4-0.1-0.6v-3.1h-1v-0.7h1v-1.4h0.8v1.4h1.5v0.7h-1.5v3
			c0,0.1,0,0.2,0.1,0.3c0,0.1,0.1,0.2,0.2,0.3c0.1,0.1,0.2,0.1,0.3,0.2c0.1,0,0.3,0.1,0.4,0.1c0.1,0,0.2,0,0.4,0
			c0.1,0,0.2,0,0.3-0.1V86.9z"/>
		<path id="XMLID_67_" class="st0" d="M73.7,84.3c0,0.4-0.1,0.8-0.2,1.1c-0.1,0.3-0.3,0.6-0.5,0.8c-0.2,0.2-0.5,0.4-0.8,0.5
			C72,87,71.6,87,71.3,87c-0.4,0-0.7-0.1-1-0.2c-0.3-0.1-0.6-0.3-0.8-0.5c-0.2-0.2-0.4-0.5-0.5-0.8c-0.1-0.3-0.2-0.7-0.2-1.1
			c0-0.4,0.1-0.8,0.2-1.1c0.1-0.3,0.3-0.6,0.5-0.9c0.2-0.2,0.5-0.4,0.8-0.6c0.3-0.1,0.6-0.2,1-0.2c0.4,0,0.7,0.1,1,0.2
			c0.3,0.1,0.6,0.3,0.8,0.6c0.2,0.2,0.4,0.5,0.5,0.9C73.6,83.6,73.7,83.9,73.7,84.3z M72.8,84.3c0-0.3,0-0.6-0.1-0.8
			c-0.1-0.2-0.2-0.5-0.3-0.6c-0.1-0.2-0.3-0.3-0.5-0.4c-0.2-0.1-0.4-0.1-0.6-0.1c-0.2,0-0.4,0-0.6,0.1c-0.2,0.1-0.4,0.2-0.5,0.4
			c-0.1,0.2-0.2,0.4-0.3,0.6c-0.1,0.2-0.1,0.5-0.1,0.8c0,0.3,0,0.6,0.1,0.8c0.1,0.2,0.2,0.5,0.3,0.6c0.1,0.2,0.3,0.3,0.5,0.4
			c0.2,0.1,0.4,0.1,0.6,0.1c0.2,0,0.4,0,0.6-0.1c0.2-0.1,0.4-0.2,0.5-0.4c0.1-0.2,0.2-0.4,0.3-0.6C72.8,84.9,72.8,84.7,72.8,84.3z
			 M72.5,79l-0.9,1.9H71l0.7-1.9H72.5z"/>
		<path id="XMLID_71_" class="st0" d="M75.1,86.9v-7.8h0.8v7.8H75.1z"/>
		<path id="XMLID_73_" class="st0" d="M77.6,80.6v-0.9h0.8v0.9H77.6z M77.6,86.9v-5.1h0.8v5.1H77.6z"/>
		<path id="XMLID_76_" class="st0" d="M82.3,81.6c0.2,0,0.5,0,0.7,0.1c0.2,0.1,0.4,0.1,0.6,0.2v0.7c-0.2-0.1-0.4-0.2-0.6-0.2
			c-0.2,0-0.4-0.1-0.6-0.1c-0.2,0-0.4,0-0.6,0.1c-0.2,0.1-0.4,0.2-0.6,0.3c-0.2,0.2-0.3,0.4-0.4,0.6c-0.1,0.3-0.1,0.6-0.1,1
			c0,0.3,0,0.5,0.1,0.8c0.1,0.2,0.2,0.4,0.3,0.6c0.1,0.2,0.3,0.3,0.5,0.4c0.2,0.1,0.5,0.1,0.8,0.1c0.2,0,0.4,0,0.6-0.1
			c0.2,0,0.4-0.1,0.6-0.2v0.7c-0.1,0-0.1,0.1-0.2,0.1c-0.1,0-0.2,0.1-0.3,0.1c-0.1,0-0.2,0-0.4,0.1c-0.1,0-0.3,0-0.4,0
			c-0.3,0-0.7-0.1-1-0.2c-0.3-0.1-0.6-0.3-0.8-0.5c-0.2-0.2-0.4-0.5-0.5-0.8c-0.1-0.3-0.2-0.7-0.2-1.2c0-0.3,0-0.6,0.1-0.9
			c0.1-0.3,0.2-0.5,0.3-0.7c0.1-0.2,0.3-0.4,0.4-0.5c0.2-0.1,0.3-0.3,0.5-0.4c0.2-0.1,0.4-0.2,0.6-0.2C82,81.7,82.2,81.6,82.3,81.6z
			"/>
		<path id="XMLID_78_" class="st0" d="M88,86.3L88,86.3c-0.1,0.1-0.2,0.2-0.3,0.3c-0.1,0.1-0.2,0.2-0.4,0.2
			c-0.1,0.1-0.3,0.1-0.4,0.2c-0.2,0-0.3,0.1-0.5,0.1c-0.2,0-0.5,0-0.7-0.1c-0.2-0.1-0.4-0.2-0.5-0.3c-0.1-0.1-0.3-0.3-0.3-0.5
			c-0.1-0.2-0.1-0.4-0.1-0.7c0-0.3,0-0.5,0.1-0.7c0.1-0.2,0.2-0.4,0.4-0.5c0.2-0.1,0.4-0.2,0.6-0.3c0.2-0.1,0.5-0.1,0.8-0.1
			c0.3,0,0.5,0,0.7,0.1c0.2,0,0.4,0.1,0.6,0.2h0v-0.4c0-0.1,0-0.3,0-0.4c0-0.1,0-0.2-0.1-0.3c-0.1-0.2-0.2-0.3-0.4-0.4
			c-0.2-0.1-0.5-0.2-0.8-0.2c-0.3,0-0.5,0-0.7,0.1c-0.2,0-0.5,0.1-0.7,0.2v-0.7c0.1,0,0.2-0.1,0.3-0.1c0.1,0,0.2-0.1,0.4-0.1
			c0.1,0,0.3,0,0.4-0.1c0.1,0,0.3,0,0.4,0c0.5,0,0.9,0.1,1.3,0.3c0.3,0.2,0.6,0.4,0.7,0.7c0.1,0.1,0.1,0.2,0.1,0.4
			c0,0.1,0,0.3,0,0.5v3.4h-0.7L88,86.3z M87.9,84.7c-0.2,0-0.3-0.1-0.5-0.1c-0.2,0-0.4-0.1-0.7-0.1c-0.4,0-0.6,0.1-0.8,0.2
			c-0.2,0.2-0.3,0.4-0.3,0.7c0,0.2,0,0.3,0.1,0.4c0.1,0.1,0.1,0.2,0.2,0.3c0.1,0.1,0.2,0.1,0.3,0.2c0.1,0,0.2,0.1,0.4,0.1
			c0.2,0,0.3,0,0.5-0.1c0.2-0.1,0.3-0.1,0.4-0.2c0.1-0.1,0.2-0.1,0.3-0.2s0.1-0.1,0.2-0.2V84.7z"/>
		<path id="XMLID_81_" class="st0" d="M92.3,84.4c0-0.4,0-0.7,0.1-0.9c0.1-0.3,0.2-0.5,0.3-0.7c0.1-0.2,0.2-0.4,0.4-0.5
			c0.2-0.1,0.3-0.3,0.5-0.3c0.2-0.1,0.3-0.1,0.5-0.2c0.2,0,0.3-0.1,0.5-0.1c0.3,0,0.6,0.1,0.8,0.2c0.2,0.1,0.4,0.3,0.6,0.5h0v-3.2
			h0.8v7.8h-0.6L96,86.3h0c-0.1,0.1-0.1,0.2-0.2,0.3c-0.1,0.1-0.2,0.2-0.3,0.2c-0.1,0.1-0.3,0.1-0.4,0.2c-0.2,0-0.3,0.1-0.5,0.1
			c-0.3,0-0.6,0-0.8-0.1c-0.3-0.1-0.5-0.2-0.7-0.5c-0.2-0.2-0.4-0.5-0.5-0.8C92.4,85.3,92.3,84.9,92.3,84.4z M93.2,84.4
			c0,0.3,0,0.6,0.1,0.8c0.1,0.2,0.2,0.4,0.3,0.6c0.1,0.2,0.3,0.3,0.5,0.4c0.2,0.1,0.4,0.1,0.6,0.1c0.2,0,0.3,0,0.5-0.1
			c0.1,0,0.3-0.1,0.4-0.2c0.1-0.1,0.2-0.1,0.3-0.2c0.1-0.1,0.1-0.2,0.2-0.2v-2.7c-0.2-0.2-0.4-0.3-0.6-0.4c-0.2-0.1-0.5-0.2-0.7-0.2
			c-0.2,0-0.3,0-0.5,0.1c-0.2,0.1-0.3,0.2-0.5,0.3c-0.1,0.2-0.3,0.4-0.4,0.6C93.2,83.7,93.2,84,93.2,84.4z"/>
		<path id="XMLID_84_" class="st0" d="M101,86.3c0.3,0,0.5,0,0.8-0.1c0.2,0,0.5-0.1,0.7-0.2v0.7c-0.2,0.1-0.4,0.2-0.7,0.2
			c-0.3,0.1-0.6,0.1-0.9,0.1c-0.4,0-0.7,0-1-0.1c-0.3-0.1-0.6-0.2-0.8-0.5c-0.2-0.2-0.4-0.5-0.6-0.8c-0.1-0.3-0.2-0.7-0.2-1.2
			c0-0.5,0.1-0.9,0.2-1.2c0.1-0.3,0.3-0.6,0.5-0.9c0.2-0.2,0.5-0.4,0.7-0.5c0.3-0.1,0.6-0.2,0.9-0.2c0.3,0,0.6,0,0.8,0.1
			c0.2,0.1,0.5,0.2,0.6,0.5c0.2,0.2,0.3,0.5,0.4,0.8c0.1,0.3,0.2,0.7,0.2,1.2c0,0,0,0.1,0,0.1c0,0,0,0.1,0,0.2h-3.5
			c0,0.3,0,0.6,0.1,0.8c0.1,0.2,0.2,0.4,0.4,0.6c0.2,0.1,0.4,0.2,0.6,0.3C100.4,86.3,100.7,86.3,101,86.3z M100.5,82.4
			c-0.2,0-0.4,0-0.5,0.1c-0.2,0.1-0.3,0.2-0.4,0.3c-0.1,0.1-0.2,0.3-0.3,0.5c-0.1,0.2-0.1,0.4-0.1,0.6h2.6c0-0.2,0-0.4-0.1-0.6
			c-0.1-0.2-0.1-0.3-0.2-0.5c-0.1-0.1-0.2-0.2-0.4-0.3C100.9,82.4,100.7,82.4,100.5,82.4z"/>
		<path id="XMLID_87_" class="st0" d="M104.1,86.9v-7.8h0.8v7.8H104.1z"/>
		<path id="XMLID_89_" class="st0" d="M109.8,86.1h3.7v0.8h-4.6v-7.2h4.4v0.8h-3.5v2.3h3.1v0.8h-3.1V86.1z"/>
		<path id="XMLID_91_" class="st0" d="M117.1,81.6c0.2,0,0.5,0,0.7,0.1c0.2,0.1,0.4,0.1,0.6,0.2v0.7c-0.2-0.1-0.4-0.2-0.6-0.2
			c-0.2,0-0.4-0.1-0.6-0.1c-0.2,0-0.4,0-0.6,0.1c-0.2,0.1-0.4,0.2-0.6,0.3c-0.2,0.2-0.3,0.4-0.4,0.6c-0.1,0.3-0.1,0.6-0.1,1
			c0,0.3,0,0.5,0.1,0.8c0.1,0.2,0.2,0.4,0.3,0.6c0.1,0.2,0.3,0.3,0.5,0.4c0.2,0.1,0.5,0.1,0.8,0.1c0.2,0,0.4,0,0.6-0.1
			c0.2,0,0.4-0.1,0.6-0.2v0.7c-0.1,0-0.1,0.1-0.2,0.1c-0.1,0-0.2,0.1-0.3,0.1c-0.1,0-0.2,0-0.4,0.1c-0.1,0-0.3,0-0.4,0
			c-0.3,0-0.7-0.1-1-0.2c-0.3-0.1-0.6-0.3-0.8-0.5c-0.2-0.2-0.4-0.5-0.5-0.8c-0.1-0.3-0.2-0.7-0.2-1.2c0-0.3,0-0.6,0.1-0.9
			c0.1-0.3,0.2-0.5,0.3-0.7c0.1-0.2,0.3-0.4,0.4-0.5c0.2-0.1,0.3-0.3,0.5-0.4c0.2-0.1,0.4-0.2,0.6-0.2
			C116.7,81.7,116.9,81.6,117.1,81.6z"/>
		<path id="XMLID_93_" class="st0" d="M121.8,87c-0.3,0-0.5,0-0.7-0.1c-0.2-0.1-0.4-0.1-0.6-0.2c-0.2-0.1-0.3-0.2-0.4-0.4
			c-0.1-0.1-0.2-0.3-0.3-0.5c-0.1-0.1-0.1-0.3-0.1-0.4c0-0.2,0-0.3,0-0.5v-3.1h0.8v3.1c0,0.3,0,0.5,0.1,0.7c0.1,0.2,0.2,0.4,0.4,0.5
			c0.2,0.1,0.4,0.2,0.7,0.2c0.3,0,0.6-0.1,0.8-0.2c0.2-0.1,0.3-0.3,0.4-0.6c0.1-0.2,0.1-0.4,0.1-0.7v-3.1h0.8v3.2c0,0.2,0,0.3,0,0.5
			c0,0.1-0.1,0.3-0.1,0.4c-0.1,0.2-0.2,0.3-0.3,0.5c-0.1,0.1-0.3,0.3-0.4,0.4c-0.2,0.1-0.4,0.2-0.6,0.3C122.3,87,122,87,121.8,87z"
			/>
		<path id="XMLID_95_" class="st0" d="M128.4,86.3L128.4,86.3c-0.1,0.1-0.2,0.2-0.3,0.3c-0.1,0.1-0.2,0.2-0.4,0.2
			c-0.1,0.1-0.3,0.1-0.4,0.2c-0.2,0-0.3,0.1-0.5,0.1c-0.2,0-0.5,0-0.7-0.1c-0.2-0.1-0.4-0.2-0.5-0.3c-0.1-0.1-0.3-0.3-0.3-0.5
			c-0.1-0.2-0.1-0.4-0.1-0.7c0-0.3,0-0.5,0.1-0.7c0.1-0.2,0.2-0.4,0.4-0.5c0.2-0.1,0.4-0.2,0.6-0.3c0.2-0.1,0.5-0.1,0.8-0.1
			c0.3,0,0.5,0,0.7,0.1c0.2,0,0.4,0.1,0.6,0.2h0v-0.4c0-0.1,0-0.3,0-0.4c0-0.1,0-0.2-0.1-0.3c-0.1-0.2-0.2-0.3-0.4-0.4
			c-0.2-0.1-0.5-0.2-0.8-0.2c-0.3,0-0.5,0-0.7,0.1c-0.2,0-0.5,0.1-0.7,0.2v-0.7c0.1,0,0.2-0.1,0.3-0.1c0.1,0,0.2-0.1,0.4-0.1
			c0.1,0,0.3,0,0.4-0.1c0.1,0,0.3,0,0.4,0c0.5,0,0.9,0.1,1.3,0.3c0.3,0.2,0.6,0.4,0.7,0.7c0.1,0.1,0.1,0.2,0.1,0.4
			c0,0.1,0,0.3,0,0.5v3.4h-0.7L128.4,86.3z M128.4,84.7c-0.2,0-0.3-0.1-0.5-0.1s-0.4-0.1-0.7-0.1c-0.4,0-0.6,0.1-0.8,0.2
			c-0.2,0.2-0.3,0.4-0.3,0.7c0,0.2,0,0.3,0.1,0.4c0.1,0.1,0.1,0.2,0.2,0.3c0.1,0.1,0.2,0.1,0.3,0.2c0.1,0,0.2,0.1,0.4,0.1
			c0.2,0,0.3,0,0.5-0.1c0.2-0.1,0.3-0.1,0.4-0.2c0.1-0.1,0.2-0.1,0.3-0.2c0.1-0.1,0.1-0.1,0.2-0.2V84.7z"/>
		<path id="XMLID_98_" class="st0" d="M130.6,84.4c0-0.4,0-0.7,0.1-0.9c0.1-0.3,0.2-0.5,0.3-0.7c0.1-0.2,0.2-0.4,0.4-0.5
			c0.2-0.1,0.3-0.3,0.5-0.3c0.2-0.1,0.3-0.1,0.5-0.2c0.2,0,0.3-0.1,0.5-0.1c0.3,0,0.6,0.1,0.8,0.2s0.4,0.3,0.6,0.5h0v-3.2h0.8v7.8
			h-0.6l-0.2-0.6h0c-0.1,0.1-0.1,0.2-0.2,0.3c-0.1,0.1-0.2,0.2-0.3,0.2c-0.1,0.1-0.3,0.1-0.4,0.2c-0.2,0-0.3,0.1-0.5,0.1
			c-0.3,0-0.6,0-0.8-0.1c-0.3-0.1-0.5-0.2-0.7-0.5c-0.2-0.2-0.4-0.5-0.5-0.8C130.6,85.3,130.6,84.9,130.6,84.4z M131.4,84.4
			c0,0.3,0,0.6,0.1,0.8c0.1,0.2,0.2,0.4,0.3,0.6c0.1,0.2,0.3,0.3,0.5,0.4c0.2,0.1,0.4,0.1,0.6,0.1c0.2,0,0.3,0,0.5-0.1
			c0.1,0,0.3-0.1,0.4-0.2c0.1-0.1,0.2-0.1,0.3-0.2c0.1-0.1,0.1-0.2,0.2-0.2v-2.7c-0.2-0.2-0.4-0.3-0.6-0.4c-0.2-0.1-0.5-0.2-0.7-0.2
			c-0.2,0-0.3,0-0.5,0.1c-0.2,0.1-0.3,0.2-0.5,0.3c-0.1,0.2-0.3,0.4-0.4,0.6C131.5,83.7,131.4,84,131.4,84.4z"/>
		<path id="XMLID_101_" class="st0" d="M141.3,84.3c0,0.4-0.1,0.8-0.2,1.1c-0.1,0.3-0.3,0.6-0.5,0.8c-0.2,0.2-0.5,0.4-0.8,0.5
			c-0.3,0.1-0.6,0.2-1,0.2c-0.4,0-0.7-0.1-1-0.2c-0.3-0.1-0.6-0.3-0.8-0.5c-0.2-0.2-0.4-0.5-0.5-0.8c-0.1-0.3-0.2-0.7-0.2-1.1
			c0-0.4,0.1-0.8,0.2-1.1c0.1-0.3,0.3-0.6,0.5-0.9c0.2-0.2,0.5-0.4,0.8-0.6c0.3-0.1,0.6-0.2,1-0.2c0.4,0,0.7,0.1,1,0.2
			c0.3,0.1,0.6,0.3,0.8,0.6c0.2,0.2,0.4,0.5,0.5,0.9C141.3,83.6,141.3,83.9,141.3,84.3z M140.5,84.3c0-0.3,0-0.6-0.1-0.8
			c-0.1-0.2-0.2-0.5-0.3-0.6c-0.1-0.2-0.3-0.3-0.5-0.4c-0.2-0.1-0.4-0.1-0.6-0.1c-0.2,0-0.4,0-0.6,0.1c-0.2,0.1-0.4,0.2-0.5,0.4
			c-0.1,0.2-0.2,0.4-0.3,0.6c-0.1,0.2-0.1,0.5-0.1,0.8c0,0.3,0,0.6,0.1,0.8c0.1,0.2,0.2,0.5,0.3,0.6c0.1,0.2,0.3,0.3,0.5,0.4
			c0.2,0.1,0.4,0.1,0.6,0.1c0.2,0,0.4,0,0.6-0.1c0.2-0.1,0.4-0.2,0.5-0.4c0.1-0.2,0.2-0.4,0.3-0.6C140.4,84.9,140.5,84.7,140.5,84.3
			z"/>
		<path id="XMLID_104_" class="st0" d="M145.5,82.5L145.5,82.5c-0.3,0-0.5,0-0.6,0.1c-0.2,0-0.4,0.1-0.5,0.2
			c-0.2,0.1-0.3,0.2-0.5,0.3c-0.1,0.1-0.2,0.2-0.3,0.4v3.6h-0.8v-5.1h0.6l0.2,0.8h0c0.1-0.1,0.2-0.3,0.3-0.4
			c0.1-0.1,0.3-0.2,0.4-0.3c0.2-0.1,0.3-0.2,0.5-0.2c0.2,0,0.4-0.1,0.6-0.1c0,0,0.1,0,0.1,0c0,0,0.1,0,0.1,0V82.5z"/>
	</g>
	<g id="XMLID_3_">
		<path id="XMLID_7_" class="st0" d="M21,65.3c1.4-0.9,3-1.6,4.6-2v8.2l0.8,0.8v-9.2c0.5-0.1,1-0.2,1.6-0.2v12.6l1.6,1.6l1.6-1.6
			V62.8c0.5,0.1,1.1,0.1,1.6,0.2v9.2l0.8-0.8v-8.2c1.7,0.4,3.2,1.1,4.6,2c0.3,0.2,0.6,0.4,0.9,0.7l1.1-1.1c-0.3-0.2-0.6-0.5-0.9-0.7
			c-2.3-1.6-5.1-2.6-8.1-2.9L29.6,58l-1.7,3.3c-3,0.3-5.7,1.3-8.1,2.9c-0.3,0.2-0.6,0.4-0.9,0.7l1.1,1.1
			C20.4,65.7,20.7,65.5,21,65.3z"/>
		<path id="XMLID_6_" class="st0" d="M14.3,82.6h8.2l0.8-0.8h-9.2c-0.1-0.5-0.2-1-0.2-1.6h12.6l1.6-1.6L26.4,77H13.8
			c0.1-0.5,0.1-1.1,0.2-1.6l9.2,0l-0.8-0.8h-8.2c0.4-1.7,1.1-3.2,2-4.6c0.2-0.3,0.4-0.6,0.7-0.9L15.8,68c-0.2,0.3-0.5,0.6-0.7,0.9
			c-1.6,2.3-2.6,5.1-2.9,8.1L9,78.6l3.3,1.7c0.3,3,1.3,5.7,2.9,8.1c0.2,0.3,0.4,0.6,0.7,0.9l1.1-1.1c-0.2-0.3-0.4-0.6-0.7-0.9
			C15.4,85.8,14.7,84.2,14.3,82.6z"/>
		<path id="XMLID_5_" class="st0" d="M38.2,91.9c-1.4,0.9-3,1.6-4.6,2v-8.2L32.8,85v9.2c-0.5,0.1-1,0.2-1.6,0.2V81.8l-1.6-1.6
			L28,81.8v12.6c-0.5-0.1-1.1-0.1-1.6-0.2V85l-0.8,0.8V94c-1.7-0.4-3.2-1.1-4.6-2c-0.3-0.2-0.6-0.4-0.9-0.7L19,92.4
			c0.3,0.2,0.6,0.5,0.9,0.7c2.3,1.6,5.1,2.6,8.1,2.9l1.7,3.3l1.7-3.3c3-0.3,5.7-1.3,8.1-2.9c0.3-0.2,0.6-0.4,0.9-0.7l-1.1-1.1
			C38.8,91.5,38.5,91.7,38.2,91.9z"/>
		<path id="XMLID_4_" class="st0" d="M50.2,78.6L47,76.9c-0.3-3-1.3-5.7-2.9-8.1c-0.2-0.3-0.4-0.6-0.7-0.9l-1.1,1.1
			c0.2,0.3,0.4,0.6,0.7,0.9c0.9,1.4,1.6,3,2,4.6h-8.2L36,75.4h9.2c0.1,0.5,0.2,1,0.2,1.6l-12.6,0l-1.6,1.6l1.6,1.6l12.6,0
			c-0.1,0.5-0.1,1.1-0.2,1.6H36l0.8,0.8H45c-0.4,1.7-1.1,3.2-2,4.6c-0.2,0.3-0.4,0.6-0.7,0.9l1.1,1.1c0.2-0.3,0.5-0.6,0.7-0.9
			c1.6-2.3,2.6-5.1,2.9-8.1L50.2,78.6z"/>
	</g>
</g>
<g>
	<path class="st0" d="M103.1,96.6l0.5-0.6c0.3,0.3,0.7,0.4,1.1,0.4c0.2,0,0.4-0.1,0.4-0.2v0c0-0.1-0.1-0.2-0.5-0.3
		c-0.7-0.2-1.2-0.4-1.2-1v0c0-0.6,0.5-1,1.3-1c0.6,0,1,0.1,1.3,0.4l-0.5,0.6c-0.3-0.2-0.6-0.3-0.9-0.3c-0.2,0-0.3,0.1-0.3,0.2v0
		c0,0.1,0.1,0.2,0.6,0.3c0.7,0.2,1.2,0.4,1.2,1v0c0,0.7-0.5,1.1-1.3,1.1C104.1,97.1,103.5,96.9,103.1,96.6z"/>
	<path class="st0" d="M106.3,95.8L106.3,95.8c0-0.7,0.5-1.3,1.3-1.3c0.9,0,1.3,0.6,1.3,1.4c0,0.1,0,0.1,0,0.2h-1.7
		c0.1,0.3,0.3,0.4,0.5,0.4c0.2,0,0.4-0.1,0.6-0.3l0.5,0.4c-0.2,0.3-0.6,0.5-1.1,0.5C106.8,97.1,106.3,96.6,106.3,95.8z M108,95.6
		c0-0.3-0.2-0.5-0.4-0.5c-0.2,0-0.4,0.2-0.4,0.5H108z"/>
	<path class="st0" d="M109.1,95.8L109.1,95.8c0-0.8,0.5-1.3,1.1-1.3c0.4,0,0.6,0.2,0.8,0.4v-1.2h0.9v3.4H111v-0.3
		c-0.2,0.2-0.4,0.4-0.8,0.4C109.6,97.1,109.1,96.6,109.1,95.8z M111,95.8L111,95.8c0-0.3-0.2-0.6-0.5-0.6s-0.5,0.2-0.5,0.6v0
		c0,0.3,0.2,0.6,0.5,0.6S111,96.1,111,95.8z"/>
	<path class="st0" d="M112.2,95.8L112.2,95.8c0-0.7,0.5-1.3,1.3-1.3c0.9,0,1.3,0.6,1.3,1.4c0,0.1,0,0.1,0,0.2h-1.7
		c0.1,0.3,0.3,0.4,0.5,0.4c0.2,0,0.4-0.1,0.6-0.3l0.5,0.4c-0.2,0.3-0.6,0.5-1.1,0.5C112.8,97.1,112.2,96.6,112.2,95.8z M113.9,95.6
		c0-0.3-0.2-0.5-0.4-0.5c-0.2,0-0.4,0.2-0.4,0.5H113.9z"/>
	<path class="st0" d="M116.2,96.6l0.5-0.6c0.3,0.3,0.7,0.4,1.1,0.4c0.2,0,0.4-0.1,0.4-0.2v0c0-0.1-0.1-0.2-0.5-0.3
		c-0.7-0.2-1.2-0.4-1.2-1v0c0-0.6,0.5-1,1.3-1c0.6,0,1,0.1,1.3,0.4l-0.5,0.6c-0.3-0.2-0.6-0.3-0.9-0.3c-0.2,0-0.3,0.1-0.3,0.2v0
		c0,0.1,0.1,0.2,0.6,0.3c0.7,0.2,1.2,0.4,1.2,1v0c0,0.7-0.5,1.1-1.3,1.1C117.2,97.1,116.6,96.9,116.2,96.6z"/>
	<path class="st0" d="M119.3,96.3L119.3,96.3c0-0.5,0.4-0.8,1-0.8c0.2,0,0.5,0,0.6,0.1v0c0-0.3-0.2-0.4-0.5-0.4
		c-0.3,0-0.5,0.1-0.7,0.1l-0.2-0.6c0.3-0.1,0.6-0.2,1-0.2c0.5,0,0.8,0.1,1,0.3c0.2,0.2,0.3,0.4,0.3,0.8v1.4h-0.9v-0.3
		c-0.2,0.2-0.4,0.3-0.7,0.3C119.7,97.1,119.3,96.8,119.3,96.3z M120.9,96.1V96c-0.1,0-0.2-0.1-0.3-0.1c-0.3,0-0.4,0.1-0.4,0.3v0
		c0,0.2,0.1,0.3,0.3,0.3C120.7,96.6,120.9,96.4,120.9,96.1z"/>
	<path class="st0" d="M122.2,94.5h0.9v0.4c0.2-0.2,0.4-0.4,0.8-0.4c0.5,0,0.9,0.4,0.9,0.9v1.6h-0.9v-1.4c0-0.3-0.1-0.4-0.4-0.4
		c-0.2,0-0.4,0.1-0.4,0.4v1.4h-0.9V94.5z"/>
	<path class="st0" d="M125.3,96.3v-1H125v-0.7h0.3v-0.6h0.9v0.6h0.6v0.7h-0.6v0.9c0,0.2,0.1,0.3,0.2,0.3c0.1,0,0.2,0,0.3-0.1V97
		c-0.2,0.1-0.4,0.1-0.6,0.1C125.6,97.1,125.3,96.9,125.3,96.3z"/>
	<path class="st0" d="M127,95.8L127,95.8c0-0.7,0.6-1.3,1.4-1.3c0.8,0,1.4,0.6,1.4,1.3v0c0,0.7-0.6,1.3-1.4,1.3
		C127.6,97.1,127,96.5,127,95.8z M128.9,95.8L128.9,95.8c0-0.3-0.2-0.6-0.5-0.6c-0.3,0-0.5,0.3-0.5,0.6v0c0,0.3,0.2,0.6,0.5,0.6
		C128.7,96.4,128.9,96.1,128.9,95.8z"/>
	<path class="st0" d="M131.5,93.8h1.3c1.2,0,1.8,0.7,1.8,1.6v0c0,0.9-0.7,1.6-1.9,1.6h-1.2V93.8z M132.8,96.3c0.5,0,0.9-0.3,0.9-0.8
		v0c0-0.5-0.4-0.8-0.9-0.8h-0.4v1.7H132.8z"/>
	<path class="st0" d="M134.9,95.8L134.9,95.8c0-0.7,0.6-1.3,1.4-1.3c0.8,0,1.4,0.6,1.4,1.3v0c0,0.7-0.6,1.3-1.4,1.3
		C135.5,97.1,134.9,96.5,134.9,95.8z M136.8,95.8L136.8,95.8c0-0.3-0.2-0.6-0.5-0.6c-0.3,0-0.5,0.3-0.5,0.6v0c0,0.3,0.2,0.6,0.5,0.6
		C136.6,96.4,136.8,96.1,136.8,95.8z"/>
	<path class="st0" d="M138,94.5h0.9v0.3c0.2-0.2,0.4-0.4,0.7-0.4c0.3,0,0.6,0.1,0.7,0.4c0.2-0.3,0.5-0.4,0.8-0.4
		c0.5,0,0.9,0.3,0.9,0.9v1.7h-0.9v-1.4c0-0.3-0.1-0.4-0.3-0.4c-0.2,0-0.4,0.1-0.4,0.4v1.4h-0.9v-1.4c0-0.3-0.1-0.4-0.3-0.4
		c-0.2,0-0.4,0.1-0.4,0.4v1.4H138V94.5z"/>
	<path class="st0" d="M142.5,93.7h0.9v0.7h-0.9V93.7z M142.6,94.5h0.9v2.5h-0.9V94.5z"/>
	<path class="st0" d="M143.9,94.5h0.9v0.4c0.2-0.2,0.4-0.4,0.8-0.4c0.5,0,0.9,0.4,0.9,0.9v1.6h-0.9v-1.4c0-0.3-0.1-0.4-0.4-0.4
		c-0.2,0-0.4,0.1-0.4,0.4v1.4h-0.9V94.5z"/>
	<path class="st0" d="M146.9,97.5l0.3-0.6c0.3,0.1,0.5,0.2,0.9,0.2c0.4,0,0.7-0.2,0.7-0.6v-0.1c-0.2,0.2-0.4,0.4-0.8,0.4
		c-0.6,0-1.1-0.4-1.1-1.2v0c0-0.7,0.5-1.2,1.1-1.2c0.4,0,0.6,0.2,0.8,0.4v-0.3h0.9v1.9c0,0.5-0.1,0.8-0.3,1
		c-0.2,0.2-0.6,0.4-1.1,0.4C147.6,97.8,147.2,97.7,146.9,97.5z M148.7,95.7L148.7,95.7c0-0.3-0.2-0.5-0.5-0.5
		c-0.3,0-0.5,0.2-0.5,0.5v0c0,0.3,0.2,0.5,0.5,0.5C148.5,96.1,148.7,95.9,148.7,95.7z"/>
	<path class="st0" d="M149.9,95.8L149.9,95.8c0-0.7,0.6-1.3,1.4-1.3c0.8,0,1.4,0.6,1.4,1.3v0c0,0.7-0.6,1.3-1.4,1.3
		C150.5,97.1,149.9,96.5,149.9,95.8z M151.8,95.8L151.8,95.8c0-0.3-0.2-0.6-0.5-0.6c-0.3,0-0.5,0.3-0.5,0.6v0c0,0.3,0.2,0.6,0.5,0.6
		C151.6,96.4,151.8,96.1,151.8,95.8z"/>
</g>
</svg>
